<svg width="220" height="221" viewBox="0 0 220 221" fill="none" xmlns="http://www.w3.org/2000/svg">
<path fill-rule="evenodd" clip-rule="evenodd" d="M219.328 122.638L219.496 122.346C217.563 140.484 211.242 157.309 201.614 171.741L108.532 118L108.506 118.044L108.48 118L18.1708 172.541C8.62924 158.503 2.23505 142.154 0.00276104 124.507L108.779 58.8127L219.328 122.638ZM33.9387 191.012C53.7125 209.607 80.3375 221 109.623 221C139.239 221 166.134 209.349 185.974 190.381L108.779 145.813L33.9387 191.012ZM108.532 31L219.015 94.7875C211.387 41.202 165.317 0 109.623 0C53.3332 0 6.87363 42.0901 0 96.5149L108.48 31L108.506 31.044L108.532 31Z" fill="url(#paint0_linear_314_698)"/>
<defs>
<linearGradient id="paint0_linear_314_698" x1="109.748" y1="0" x2="109.748" y2="221" gradientUnits="userSpaceOnUse">
<stop stop-color="#D63654"/>
<stop offset="1" stop-color="#FF6985"/>
</linearGradient>
</defs>
</svg>
